<?xml version="1.0" encoding="UTF-8"?> <svg xmlns="http://www.w3.org/2000/svg" xmlns:xlink="http://www.w3.org/1999/xlink" viewBox="0 0 993.75 993.75"><defs><style>.cls-1{fill:none;}.cls-2{fill:url(#Dégradé_sans_nom_13);}.cls-3{clip-path:url(#clip-path);}.cls-4{fill:#fff;}.cls-5{clip-path:url(#clip-path-2);}</style><linearGradient id="Dégradé_sans_nom_13" x1="145.53" y1="848.22" x2="848.22" y2="145.53" gradientUnits="userSpaceOnUse"><stop offset="0" stop-color="#e94a34"></stop><stop offset="1" stop-color="#e72b78"></stop></linearGradient><clipPath id="clip-path" transform="translate(-98.14 -87.7)"><rect class="cls-1" x="583.57" y="285.6" width="345.72" height="856.67" transform="translate(656.27 -321.37) rotate(41.13)"></rect></clipPath><clipPath id="clip-path-2" transform="translate(-98.14 -87.7)"><rect class="cls-1" x="240.45" y="28.38" width="419.65" height="888.54" transform="translate(422.01 -179.53) rotate(41.13)"></rect></clipPath></defs><g id="Calque_2" data-name="Calque 2"><g id="Calque_1-2" data-name="Calque 1"><circle class="cls-2" cx="496.88" cy="496.88" r="496.88"></circle><g class="cls-3"><polygon class="cls-4" points="323.23 365.55 368.65 365.55 368.65 317.07 423.67 212.48 378.48 212.48 345.94 274.93 312.53 212.48 267.11 212.48 323.23 317.95 323.23 365.55"></polygon><polygon class="cls-4" points="564.52 330.61 482.63 330.61 482.63 306.37 554.91 306.37 554.91 271.44 482.63 271.44 482.63 247.42 562.33 247.42 562.33 212.48 437.22 212.48 437.22 365.55 564.52 365.55 564.52 330.61"></polygon><path class="cls-4" d="M750.44,419.18c-15.72,0-41.27-10-57-23.36l-17,34.5c19.21,15.06,47.6,24.24,73.58,24.24,34.29,0,63.11-15.51,63.11-48,0-55.25-79.92-41.93-79.92-64.42,0-5.67,5-8.29,12.66-8.29,12.89,0,35.16,8.07,50.88,17l16.81-34.94c-16.59-10.7-40.61-17.69-64-17.69-38.21,0-63.32,18.78-63.32,48.26,0,53.93,79.91,39.3,79.91,62.45C766.16,415.91,760.05,419.18,750.44,419.18Z" transform="translate(-98.14 -87.7)"></path><polygon class="cls-4" points="540.27 420.45 493.76 420.45 468.21 526.35 442.01 420.45 397.68 420.67 372.13 526.35 345.93 420.45 297.46 420.45 347.24 573.51 393.97 573.51 418.86 475.91 443.32 573.51 490.05 573.51 540.27 420.45"></polygon><polygon class="cls-4" points="679.15 455.38 679.15 420.45 554.03 420.45 554.03 573.51 681.33 573.51 681.33 538.58 599.45 538.58 599.45 514.34 671.73 514.34 671.73 479.4 599.45 479.4 599.45 455.38 679.15 455.38"></polygon><path class="cls-4" d="M462.26,713H398.41v145.8h62.4c48,0,79.86-29.12,79.86-73S509.47,713,462.26,713Zm1.25,111.9H441.67V747.09h19.76c20.8,0,35.15,15.6,35.15,39.1C496.58,809.49,483.27,824.88,463.51,824.88Z" transform="translate(-98.14 -87.7)"></path><polygon class="cls-4" points="504.08 714.72 572.92 714.72 572.92 681.44 504.08 681.44 504.08 658.56 579.99 658.56 579.99 625.29 460.82 625.29 460.82 771.08 582.07 771.08 582.07 737.8 504.08 737.8 504.08 714.72"></polygon><polygon class="cls-4" points="704.77 625.29 671.49 726.16 638.21 625.29 592.04 625.29 647.78 771.08 692.7 771.08 749.07 625.29 704.77 625.29"></polygon></g><g class="cls-5"><polygon class="cls-4" points="318.28 364.48 363.69 364.48 363.69 316 418.72 211.41 373.52 211.41 340.99 273.86 307.58 211.41 262.16 211.41 318.28 316.88 318.28 364.48"></polygon><polygon class="cls-4" points="559.56 329.54 477.68 329.54 477.68 305.3 549.96 305.3 549.96 270.37 477.68 270.37 477.68 246.35 557.38 246.35 557.38 211.41 432.26 211.41 432.26 364.48 559.56 364.48 559.56 329.54"></polygon><path class="cls-4" d="M745.49,418.11c-15.72,0-41.27-10-57-23.36l-17,34.5c19.22,15.06,47.61,24.23,73.59,24.23,34.28,0,63.1-15.5,63.1-48,0-55.25-79.91-41.93-79.91-64.42,0-5.68,5-8.3,12.66-8.3,12.88,0,35.16,8.08,50.88,17l16.81-34.94c-16.59-10.7-40.61-17.69-64-17.69-38.21,0-63.32,18.78-63.32,48.26,0,53.93,79.92,39.3,79.92,62.45C761.21,414.84,755.09,418.11,745.49,418.11Z" transform="translate(-98.14 -87.7)"></path><polygon class="cls-4" points="535.31 419.38 488.81 419.38 463.26 525.28 437.06 419.38 392.73 419.59 367.18 525.28 340.98 419.38 292.5 419.38 342.29 572.44 389.02 572.44 413.91 474.84 438.37 572.44 485.09 572.44 535.31 419.38"></polygon><polygon class="cls-4" points="674.2 454.31 674.2 419.38 549.08 419.38 549.08 572.44 676.38 572.44 676.38 537.51 594.5 537.51 594.5 513.27 666.77 513.27 666.77 478.33 594.5 478.33 594.5 454.31 674.2 454.31"></polygon><path class="cls-4" d="M457.31,711.91H393.46v145.8h62.39c48,0,79.87-29.12,79.87-73S504.52,711.91,457.31,711.91Zm1.25,111.9H436.72V746h19.76c20.79,0,35.14,15.6,35.14,39.1C491.62,808.42,478.31,823.81,458.56,823.81Z" transform="translate(-98.14 -87.7)"></path><polygon class="cls-4" points="499.12 713.65 567.97 713.65 567.97 680.37 499.12 680.37 499.12 657.49 575.03 657.49 575.03 624.22 455.87 624.22 455.87 770.01 577.12 770.01 577.12 736.73 499.12 736.73 499.12 713.65"></polygon><polygon class="cls-4" points="699.81 624.22 666.53 725.09 633.26 624.22 587.09 624.22 642.83 770.01 687.75 770.01 744.11 624.22 699.81 624.22"></polygon></g><polygon class="cls-4" points="239.38 846.4 814 189.91 810.04 189.91 235.42 846.4 239.38 846.4"></polygon></g></g></svg> 